<svg xmlns="http://www.w3.org/2000/svg" width="137.612" height="107.507" viewBox="0 0 137.612 107.507">
  <g  transform="translate(-64.938 -129.864)">
    <g  transform="translate(64.938 129.864)">
      <path  d="M168.182,181.485a51.622,51.622,0,1,1-51.623-51.621A51.622,51.622,0,0,1,168.182,181.485Z" transform="translate(-64.938 -129.864)" fill="#a6a8ab"/>
      <path  d="M180.412,202.33a43,43,0,1,1-43-43A43,43,0,0,1,180.412,202.33Z" transform="translate(-85.786 -150.709)" fill="#f0f1f1"/>
      <g  transform="translate(0)">
        <path  d="M116.559,224.491a43,43,0,0,1,0-86.009h0v-8.617h0a51.622,51.622,0,0,0,0,103.243h0v-8.617Z" transform="translate(-64.938 -129.864)" fill="#d0d2d3"/>
        <path  d="M94.4,202.33a43,43,0,0,0,43,43.005h0V159.326h0A43,43,0,0,0,94.4,202.33Z" transform="translate(-85.786 -150.709)" fill="#fff"/>
      </g>
      <path  d="M2.313,0h0A2.313,2.313,0,0,1,4.626,2.313V9.607A2.313,2.313,0,0,1,2.313,11.92h0A2.313,2.313,0,0,1,0,9.607V2.313A2.313,2.313,0,0,1,2.313,0Z" transform="translate(49.309 5.446)" fill="#773249"/>
      <path  d="M93.48,298.446a2,2,0,0,1,2,2v.631a2,2,0,0,1-2,2H85.556a2,2,0,0,1-2-2v-.631a2,2,0,0,1,2-2Z" transform="translate(-78.112 -249.139)" fill="#6c6e70"/>
      <path  d="M360.556,303.075a2,2,0,0,1-2-2v-.631a2,2,0,0,1,2-2h7.924a2,2,0,0,1,2,2v.631a2,2,0,0,1-2,2Z" transform="translate(-272.679 -249.139)" fill="#6c6e70"/>
      <path  d="M2.313,0h0A2.313,2.313,0,0,1,4.626,2.313V9.607A2.313,2.313,0,0,1,2.313,11.92h0A2.313,2.313,0,0,1,0,9.607V2.313A2.313,2.313,0,0,1,2.313,0Z" transform="translate(49.309 5.446)" fill="#6c6e70"/>
      <path  d="M2.314,0h0A2.312,2.312,0,0,1,4.626,2.312v7.3A2.311,2.311,0,0,1,2.315,11.92h0A2.311,2.311,0,0,1,0,9.608V2.314A2.314,2.314,0,0,1,2.314,0Z" transform="translate(49.309 85.878)" fill="#6c6e70"/>
      <path  d="M187.2,255.251a2,2,0,0,1,0,2.826l-.448.447a2,2,0,0,1-2.826,0l-25.914-25.915a2,2,0,0,1,0-2.827l.446-.447a2,2,0,0,1,2.824,0Z" transform="translate(-130.376 -199.828)" fill="#403f41"/>
      <path  d="M226.277,274.9a2,2,0,0,1-2.824,0l-.446-.447a2,2,0,0,1,0-2.826l19.146-19.144a2,2,0,0,1,2.825,0l.446.447a2,2,0,0,1,0,2.825Z" transform="translate(-176.359 -216.206)" fill="#403f41"/>
    </g>
    <g  transform="translate(122.059 166.419)">
      <g >
        <path  d="M521.055,326.349s1.11,1.2,2.921-2.613.582,4.752-1.4,6.561-2.091-.106-2.091-.106Z" transform="translate(-444.367 -302.902)" fill="#d15c58"/>
        <path  d="M493.126,320.771s6.029-2.284,8.885,3.238.4,8.375-1.512,9.328S493.126,320.771,493.126,320.771Z" transform="translate(-425.01 -301.158)" fill="#ea786a"/>
        <path  d="M323.243,451.041l2.024,11.289s3.487,2.469,9.009.945,2.438-7.026,2.438-7.026Z" transform="translate(-304.815 -393.657)" fill="#ea786a"/>
        <path  d="M428.668,453.9l1.333,6.7a11.112,11.112,0,0,0,7.615,0c4-1.524.953-9.568.953-9.568Z" transform="translate(-379.405 -393.657)" fill="#d15c58"/>
        <path  d="M327.871,262.769s-6.664-8.467-8.758-7.9.951,14.7,0,16.964S327.871,262.769,327.871,262.769Z" transform="translate(-301.36 -254.846)" fill="#ea786a"/>
        <path  d="M329.785,272s-5.107-7.111-5.488-7.3.587,7.4.38,9.961S329.785,272,329.785,272Z" transform="translate(-305.497 -261.813)" fill="#d15c58"/>
        <path  d="M452.735,433.3l2.1,8a10.874,10.874,0,0,0,11.043-1.5c.571-4.827,1.051-16.586,1.051-16.586l-14.193,9.336" transform="translate(-396.432 -373.969)" fill="#ea786a"/>
        <path  d="M355.5,298.743c1.429,19.884-16.648,29.661-36.833,29.661s-32.835-10.837-32.835-27.377,15.5-31.66,34.263-31.66C339.986,269.367,354.318,282.246,355.5,298.743Z" transform="translate(-278.347 -265.12)" fill="#f88976"/>
        <path  d="M354.762,279.043c-.285-1.428,6.943-13.867,9.044-12.851s3.237,18.066,1.9,20.742S355.048,280.471,354.762,279.043Z" transform="translate(-327.109 -262.831)" fill="#ea786a"/>
        <path  d="M363.368,286.794s4.341-8.674,5.484-8.764,1.333,15.974-.571,14.415S363.26,287.936,363.368,286.794Z" transform="translate(-333.202 -271.249)" fill="#d15c58"/>
        <path  d="M396.943,278.54a34.53,34.53,0,0,1,20.524,4.247,3.5,3.5,0,0,1,.857,2.095,39.333,39.333,0,0,0-20.526-3.823A8.6,8.6,0,0,0,396.943,278.54Z" transform="translate(-356.959 -271.473)" fill="#d15c58"/>
        <path  d="M371.372,458.833l-1.9,7.358s-3.085,1.454-10.91.531c-1.275-2.17-2.8-12.261-2.8-12.261Z" transform="translate(-327.821 -396.077)" fill="#f88976"/>
        <g  transform="translate(0 27.905)">
          <path  d="M285.616,350.479c-1.729-.816-9.374.829-9.374.829l1.7,23.973s6.636.962,9.385-.667,4.364-5.819,3.884-12.583S287.346,351.294,285.616,350.479Z" transform="translate(-271.56 -350.252)" fill="#ea786a"/>
          <path  d="M271.234,365.445c.47,6.621-1.6,12.16-4.614,12.375s-5.847-4.979-6.317-11.6,1.6-12.16,4.615-12.375S270.764,358.825,271.234,365.445Z" transform="translate(-260.236 -352.791)" fill="#f88976"/>
          <path  d="M268.677,387.079a1.013,1.013,0,0,1-.938,1.082l-.356.025a1.014,1.014,0,0,1-1.082-.939l-.5-7.008a1.013,1.013,0,0,1,.938-1.082l.356-.026a1.014,1.014,0,0,1,1.082.94Z" transform="translate(-264.173 -370.682)" fill="#d15c58"/>
          <path  d="M282.253,387.559a1.013,1.013,0,0,1-.938,1.082l-.356.025a1.013,1.013,0,0,1-1.082-.939l-.5-7.009a1.012,1.012,0,0,1,.938-1.082l.356-.025a1.013,1.013,0,0,1,1.082.939Z" transform="translate(-273.779 -371.023)" fill="#d15c58"/>
        </g>
        <g  transform="translate(18.015 20.92)">
          <path  d="M322.024,329.219a3.786,3.786,0,1,0,4.8-2.683A3.893,3.893,0,0,0,322.024,329.219Z" transform="translate(-321.83 -326.371)" fill="#fff"/>
          <path  d="M323.473,331.143a2.96,2.96,0,1,0,3.755-2.1A3.044,3.044,0,0,0,323.473,331.143Z" transform="translate(-322.884 -328.173)" fill="#221f1f"/>
        </g>
        <g  transform="translate(11.683 19.747)">
          <path  d="M304.032,325.942c-.727,1.415-2.079,2.169-3.018,1.686s-1.112-2.024-.385-3.437,2.08-2.169,3.019-1.685S304.76,324.528,304.032,325.942Z" transform="translate(-300.179 -322.36)" fill="#fff"/>
          <path  d="M303.731,326.655c-.569,1.105-1.625,1.695-2.361,1.317s-.869-1.581-.3-2.687,1.624-1.7,2.36-1.317S304.3,325.549,303.731,326.655Z" transform="translate(-300.56 -323.417)" fill="#221f1f"/>
        </g>
      </g>
      <path  d="M337.988,333.907a.689.689,0,1,1-.689-.689A.689.689,0,0,1,337.988,333.907Z" transform="translate(-314.272 -310.296)" fill="#fff"/>
      <path  d="M308.506,327.506a.345.345,0,1,1-.183-.452A.345.345,0,0,1,308.506,327.506Z" transform="translate(-293.919 -305.915)" fill="#fff"/>
    </g>
    <g  transform="translate(161.082 149.173)">
      <path  d="M419.787,213.54a13.409,13.409,0,1,1-8.474-16.964A13.409,13.409,0,0,1,419.787,213.54Z" transform="translate(-393.656 -195.882)" fill="#e8af2e"/>
      <path  d="M423.35,218.636a10.986,10.986,0,1,1-6.942-13.9A10.985,10.985,0,0,1,423.35,218.636Z" transform="translate(-399.517 -201.745)" fill="#f9ca35"/>
      <g  transform="translate(5.129 6.514)">
        <path  d="M426.122,220.335l-1.491,2.315a4.377,4.377,0,0,0-2.459-1.684,4.214,4.214,0,0,0-3.251.1,3.535,3.535,0,0,0-1.392,1.211l6.03,2.013-.823,1.3-5.9-1.968c-.055.138-.118.316-.191.536s-.138.438-.2.673l5.579,1.863-.823,1.3-5-1.669a3.541,3.541,0,0,0,.332,1.816,4.1,4.1,0,0,0,2.491,2.029,5.225,5.225,0,0,0,3.714.042L421.807,233a9.042,9.042,0,0,1-3.519-.515,8.046,8.046,0,0,1-4.652-3.582,6.2,6.2,0,0,1-.819-3.715l-1.624-.542.824-1.3,1.075.359c.042-.149.09-.3.145-.47.094-.279.184-.524.27-.732l-1.437-.48.823-1.3,1.3.435a6.27,6.27,0,0,1,2.846-2.431,8.321,8.321,0,0,1,6.064-.026A8.891,8.891,0,0,1,426.122,220.335Z" transform="translate(-411.193 -218.153)" fill="#c38728"/>
      </g>
    </g>
  </g>
</svg>
